<svg width="104" height="24" viewBox="0 0 104 24" fill="none" xmlns="http://www.w3.org/2000/svg">
<g clip-path="url(#clip0_39103_15828)">
<path d="M54.7501 12.9049C57.8422 9.95832 57.8422 5.1565 54.7501 2.20993C51.658 -0.736643 46.6015 -0.736643 43.4731 2.20993C42.9638 2.71921 42.8547 3.48314 43.2548 4.10155C43.3276 4.21069 43.4003 4.31982 43.4731 4.42895C44.0187 5.26563 45.2192 5.37476 45.9467 4.71997C47.7656 3.01023 50.7122 3.01023 52.3855 4.86548C53.877 6.50246 53.8043 8.93975 52.1673 10.504L41.7633 20.3986C41.6178 20.5441 41.4723 20.6533 41.3268 20.7988C40.5629 21.5263 41.1085 22.7995 42.1999 22.7995H55.4412C56.1688 22.7995 56.7508 22.2539 56.7508 21.5627V20.6169C56.7508 19.9257 56.1688 19.3801 55.4412 19.3801H48.0203C48.0203 19.3801 47.9839 19.3801 48.0203 19.3437L54.7501 12.9049Z" fill="#020D77"/>
<path d="M22.9922 11.4134V22.3266C22.9922 23.2361 22.2647 24 21.3189 24C20.4094 24 19.6455 23.2724 19.6455 22.3266V19.0527C19.3909 19.3437 19.2454 19.5256 19.2454 19.5256C19.0271 19.7075 18.8452 19.9257 18.6269 20.1076C16.6626 21.781 14.1161 22.7632 11.3515 22.7632C5.02179 22.7632 -0.107422 17.5612 0.00170978 11.2315C0.110842 5.26562 4.91266 0.354668 10.8786 0.100026C14.0434 -0.0454832 16.9172 1.15497 19.0635 3.11935C19.5728 3.59226 19.6819 4.35618 19.3181 4.93822C19.2454 5.04735 19.1726 5.19286 19.0999 5.302C18.6269 6.17506 17.4629 6.32056 16.7717 5.62939C15.353 4.28343 13.4614 3.44675 11.3515 3.44675C6.80429 3.44675 3.13017 7.33913 3.45756 11.9591C3.74858 15.7787 6.80429 18.8708 10.6239 19.2345C14.1889 19.5619 17.3537 17.4884 18.6269 14.4327C18.8088 13.9962 18.9543 13.5233 19.0635 13.0504V13.014H12.37C11.4606 13.014 10.6967 12.2865 10.6967 11.3406C10.6967 10.4312 11.4242 9.66729 12.37 9.66729H21.3189C21.3916 9.66729 21.4644 9.66729 21.5008 9.66729C21.5735 9.66729 21.6099 9.66729 21.6463 9.70366C22.4466 9.95831 22.9922 10.6131 22.9922 11.4134Z" fill="#020D77"/>
<path d="M31.9411 0.100037C26.63 0.100037 22.1555 3.77416 20.9551 8.72148H21.3189C22.7376 8.72148 23.9016 9.84918 24.0108 11.2315C24.0108 11.3043 24.0108 11.3407 24.0108 11.4134C24.0108 11.5589 24.0108 11.7408 24.0108 11.8863V19.5256C26.0479 21.5263 28.849 22.7632 31.9047 22.7632C38.1616 22.7632 43.2181 17.6703 43.2181 11.4498C43.2544 5.19287 38.1616 0.100037 31.9411 0.100037Z" fill="#020D77"/>
<path d="M31.941 19.3437C36.3208 19.3437 39.8713 15.7932 39.8713 11.4134C39.8713 7.03366 36.3208 3.48315 31.941 3.48315C27.5612 3.48315 24.0107 7.03366 24.0107 11.4134C24.0107 15.7932 27.5612 19.3437 31.941 19.3437Z" fill="#1791F5"/>
<path d="M31.941 6.5752C29.2491 6.5752 27.0664 8.75784 27.0664 11.4498C27.0664 14.1417 29.2491 16.3243 31.941 16.3243C34.6329 16.3243 36.8156 14.1417 36.8156 11.4498C36.8156 8.75784 34.6329 6.5752 31.941 6.5752Z" fill="#8DC9F8"/>
<path d="M31.9417 9.23077C30.7412 9.23077 29.7227 10.213 29.7227 11.4498C29.7227 12.6866 30.7048 13.6688 31.9417 13.6688C33.1785 13.6688 34.1607 12.6866 34.1607 11.4498C34.1607 10.213 33.1421 9.23077 31.9417 9.23077Z" fill="white"/>
<path d="M67.8817 16.7609C69.2276 16.2153 69.3732 15.0148 69.3732 14.5055C69.3732 12.6503 68.0272 11.4862 65.8809 11.4862H62.1341C61.5156 11.4862 61.0791 11.8864 61.0791 12.4684V21.781C61.0791 22.3631 61.5156 22.7632 62.1341 22.7632H66.2811C68.5001 22.7632 70.0643 21.3809 70.0643 19.4165C70.028 18.3979 69.3004 17.1247 67.8817 16.7609ZM67.9181 19.4529C67.9181 20.2532 67.2996 21.1262 66.1356 21.1262H63.0799V17.6704H66.0992C67.2269 17.6704 67.9181 18.5798 67.9181 19.4529ZM63.0799 16.0698V13.1596H65.6627C66.6812 13.1596 67.2633 13.6689 67.2633 14.5419C67.2633 15.3058 66.7904 16.0698 65.7718 16.0698H63.0799Z" fill="#1791F5"/>
<path d="M77.0858 12.2865C76.8311 11.7045 76.3582 11.4135 75.7398 11.4135H75.6307C74.9759 11.4135 74.5393 11.7045 74.2847 12.2865L70.3559 21.6355C70.2468 21.8538 70.2832 22.1448 70.3923 22.3631C70.5014 22.5813 70.6833 22.7632 70.9016 22.7996C71.0107 22.836 71.1562 22.8723 71.2654 22.8723C71.7019 22.8723 72.1021 22.6541 72.2476 22.2903L73.2298 19.9985H78.1771L79.1229 22.2903C79.3048 22.7632 79.9232 22.9815 80.4689 22.836C80.6871 22.7632 80.869 22.6177 80.9781 22.3994C81.0873 22.1812 81.0873 21.8901 81.0145 21.6719L77.0858 12.2865ZM77.4495 18.3615H73.8845L75.667 13.8507L77.4495 18.3615Z" fill="#1791F5"/>
<path d="M90.2538 11.4135C89.7445 11.4135 89.2716 11.85 89.2716 12.3229V19.3074L84.3606 11.8864C84.106 11.5226 83.8513 11.3771 83.3784 11.3771H83.1238C82.5781 11.3771 82.1416 11.7772 82.1416 12.2501V21.9265C82.1416 22.4358 82.5781 22.836 83.1238 22.836C83.7058 22.836 84.1787 22.4358 84.1787 21.9265V14.8693L89.1624 22.3631C89.4171 22.7268 89.6717 22.8723 90.1083 22.8723H90.3629C90.8722 22.8723 91.3087 22.4722 91.3087 21.9993V12.3229C91.3087 11.8136 90.8358 11.4135 90.2538 11.4135Z" fill="#1791F5"/>
<path d="M101.385 21.3809L97.0198 17.0883L100.73 12.723C100.876 12.5411 100.949 12.3229 100.912 12.0682C100.876 11.85 100.73 11.6681 100.548 11.5226C100.112 11.2679 99.4935 11.3407 99.2388 11.7045L95.6739 15.9606V12.3229C95.6739 11.8136 95.201 11.4134 94.6189 11.4134C94.1096 11.4134 93.6367 11.85 93.6367 12.3229V21.9265C93.6367 22.4358 94.0733 22.836 94.6189 22.836C95.201 22.836 95.6739 22.4358 95.6739 21.9265V18.3252L99.93 22.5813C100.148 22.7996 100.403 22.8723 100.694 22.8723C100.912 22.8723 101.13 22.7996 101.276 22.6904C101.494 22.5449 101.603 22.3267 101.64 22.072C101.64 21.8174 101.531 21.5627 101.385 21.3809Z" fill="#1791F5"/>
<path d="M102.004 11.0496H101.677V10.8677H102.513V11.0496H102.186V11.9954H102.004V11.0496ZM102.695 10.9041H102.877L103.241 11.5953L103.605 10.9041H103.787V12.0318H103.605V11.2679L103.277 11.8135H103.168L102.841 11.2679V12.0318H102.659V10.9041H102.695Z" fill="#1791F5"/>
</g>
<defs>
<clipPath id="clip0_39103_15828">
<rect width="104" height="24" fill="white"/>
</clipPath>
</defs>
</svg>
