<svg
    className={cx(this.baseCls, contextCls)}
    width="24"
    height="24"
    viewBox="0 0 24 24"
    fill="none"
    xmlns="http://www.w3.org/2000/svg"
>
    <path
        d="M21.73 8.87316L5.39671 0.706491C4.75212 0.385668 4.02426 0.271453 3.31238 0.379418C2.60051 0.487382 1.93925 0.812273 1.41876 1.30979C0.898282 1.80731 0.543906 2.45325 0.403953 3.15954C0.263999 3.86582 0.345279 4.59809 0.636711 5.25649L3.43671 11.5215C3.50024 11.673 3.53296 11.8356 3.53296 11.9998C3.53296 12.1641 3.50024 12.3267 3.43671 12.4782L0.636711 18.7432C0.399528 19.276 0.299259 19.8596 0.345018 20.4411C0.390776 21.0225 0.58111 21.5833 0.898723 22.0725C1.21634 22.5617 1.65116 22.9637 2.16367 23.2421C2.67618 23.5205 3.25014 23.6663 3.83338 23.6665C4.37965 23.661 4.91778 23.5335 5.40838 23.2932L21.7417 15.1265C22.3211 14.835 22.8081 14.3883 23.1483 13.8362C23.4886 13.2842 23.6688 12.6484 23.6688 11.9998C23.6688 11.3513 23.4886 10.7155 23.1483 10.1634C22.8081 9.6113 22.3211 9.16461 21.7417 8.87316H21.73ZM20.6917 13.0382L4.35838 21.2048C4.1439 21.3078 3.90306 21.3428 3.66816 21.305C3.43326 21.2672 3.21552 21.1585 3.04414 20.9935C2.87276 20.8285 2.75594 20.615 2.70933 20.3817C2.66272 20.1483 2.68856 19.9064 2.78338 19.6882L5.57171 13.4232C5.60781 13.3395 5.63897 13.2538 5.66504 13.1665H13.7034C14.0128 13.1665 14.3095 13.0436 14.5283 12.8248C14.7471 12.606 14.87 12.3092 14.87 11.9998C14.87 11.6904 14.7471 11.3937 14.5283 11.1749C14.3095 10.9561 14.0128 10.8332 13.7034 10.8332H5.66504C5.63897 10.7459 5.60781 10.6602 5.57171 10.5765L2.78338 4.31149C2.68856 4.09328 2.66272 3.8513 2.70933 3.61799C2.75594 3.38468 2.87276 3.17119 3.04414 3.00616C3.21552 2.84113 3.43326 2.73244 3.66816 2.69467C3.90306 2.65689 4.1439 2.69184 4.35838 2.79482L20.6917 10.9615C20.8828 11.0594 21.0432 11.2081 21.1552 11.3913C21.2672 11.5745 21.3264 11.7851 21.3264 11.9998C21.3264 12.2145 21.2672 12.4251 21.1552 12.6083C21.0432 12.7915 20.8828 12.9403 20.6917 13.0382Z"
        fill="#2945FF"
    />
</svg>