<svg
    width="24"
    height="24"
    viewBox="0 0 24 24"
    fill="none"
    xmlns="http://www.w3.org/2000/svg"
>
    <path
        fillRule="evenodd"
        clipRule="evenodd"
        d="M17.572 5.74742C16.5426 3.78618 14.6904 2.85781 11.9005 2.85781C8.62356 2.85781 6.67515 4.181 5.86821 7.02044C8.26488 7.95926 9.75429 7.8729 12.292 6.31586L12.649 6.09678L13.0635 6.15719C15.2675 6.47838 16.4087 6.32246 17.572 5.74742ZM18.312 7.9554C18.3475 8.1375 18.3793 8.3247 18.4073 8.51704V16.0175L15.1464 19.1722C14.992 19.1365 14.8311 19.1177 14.6658 19.1177C13.4903 19.1177 12.5374 20.0706 12.5374 21.2461C12.5374 22.4216 13.4903 23.3745 14.6658 23.3745C15.8413 23.3745 16.7943 22.4216 16.7943 21.2461C16.7943 21.1053 16.7806 20.9677 16.7545 20.8345L20.3678 17.3389C20.5761 17.1374 20.7005 16.8657 20.718 16.5782C22.2243 15.9483 23.5926 14.1707 23.5926 11.9707C23.5926 9.68762 22.1904 8.11916 20.6047 7.63398C19.7371 2.99149 16.7439 0.544922 11.9005 0.544922C7.11163 0.544922 4.17836 2.99814 3.3622 7.63462C1.77734 8.12054 0.376465 9.68862 0.376465 11.9707C0.376465 14.2865 1.89266 16.1343 3.48992 16.668C4.34833 19.6336 7.23634 22.4026 10.7154 22.4026C11.3541 22.4026 11.8719 21.8848 11.8719 21.2461C11.8719 20.6074 11.3541 20.0897 10.7154 20.0897C7.92723 20.0897 5.54278 17.2363 5.54278 14.9065V9.36557C8.21016 10.3023 10.2875 10.1673 13.1425 8.50214C15.419 8.79012 16.9012 8.59086 18.312 7.9554ZM3.22989 13.673V10.3921C2.91273 10.7626 2.68935 11.2959 2.68935 11.9707C2.68935 12.6425 2.92044 13.2316 3.22989 13.673ZM21.2797 11.9707C21.2797 12.6561 21.0391 13.2555 20.7202 13.6997V10.3703C21.0474 10.7416 21.2797 11.2825 21.2797 11.9707ZM8.86331 16.4689C10.5889 18.1563 13.3047 18.1563 15.0766 16.4787C15.4275 16.1464 15.4426 15.5926 15.1104 15.2417C14.7782 14.8908 14.2243 14.8756 13.8734 15.2079C12.7799 16.2433 11.1356 16.2433 10.0868 15.2177C9.74131 14.8798 9.18732 14.886 8.84946 15.2315C8.5116 15.577 8.5178 16.131 8.86331 16.4689ZM9.81145 10.5905H8.75705C8.05412 10.5905 7.70265 10.8849 7.70265 11.4737C7.70265 12.0626 8.05412 12.357 8.75705 12.357H9.81145C10.5144 12.357 10.8658 12.0626 10.8658 11.4737C10.8658 10.8849 10.5144 10.5905 9.81145 10.5905ZM14.1386 10.5905H15.193C15.896 10.5905 16.2474 10.8849 16.2474 11.4737C16.2474 12.0626 15.896 12.357 15.193 12.357H14.1386C13.4357 12.357 13.0842 12.0626 13.0842 11.4737C13.0842 10.8849 13.4357 10.5905 14.1386 10.5905Z"
        fill="#2945FF"
    />
</svg>