<svg width="144" height="19" viewBox="0 0 144 19" fill="none" xmlns="http://www.w3.org/2000/svg">
<g clip-path="url(#clip0_9758_217578)">
<path d="M16.2888 1.93141C15.9973 1.6399 15.6146 1.49414 15.2325 1.49414C14.8498 1.49414 14.4678 1.6399 14.1756 1.93203L1.93139 14.1756C1.34774 14.7593 1.34774 15.7052 1.93139 16.2888C2.22352 16.5809 2.60559 16.7267 2.98828 16.7267C3.37097 16.7267 3.75305 16.5809 4.04518 16.2888L16.2888 4.04458C16.8724 3.46093 16.8724 2.51506 16.2888 1.93141ZM15.6778 3.43364L3.43362 15.6779C3.31453 15.797 3.15637 15.8627 2.98828 15.8627C2.8202 15.8627 2.66142 15.797 2.54233 15.6779C2.29671 15.4322 2.29671 15.0328 2.54233 14.7872L14.7872 2.54235C14.9063 2.42327 15.0644 2.35752 15.2331 2.35752C15.4012 2.35752 15.5594 2.42327 15.6785 2.54173C15.7976 2.66082 15.8633 2.81898 15.8633 2.98707C15.8627 3.15639 15.7969 3.31455 15.6778 3.43364Z" fill="#F16124"/>
<path d="M10.7713 1.58571C10.4798 1.29419 10.0971 1.14844 9.71508 1.14844C9.33239 1.14844 8.95032 1.29419 8.65818 1.58633L1.58617 8.65834C1.00253 9.24199 1.00253 10.1879 1.58617 10.7715C1.87769 11.063 2.26038 11.2094 2.64307 11.2094C3.02576 11.2094 3.40783 11.0636 3.69996 10.7715L10.7713 3.69888C11.355 3.11523 11.355 2.16936 10.7713 1.58571ZM10.1604 3.08794L3.0884 10.16C2.96932 10.279 2.81115 10.3448 2.64307 10.3448C2.47498 10.3448 2.31682 10.279 2.19773 10.16C1.95212 9.91434 1.95212 9.5149 2.19773 9.26928L9.26974 2.19665C9.38883 2.07756 9.54699 2.01182 9.7157 2.01182C9.88378 2.01182 10.0419 2.07756 10.161 2.19603C10.2801 2.31511 10.3459 2.47328 10.3459 2.64198C10.3452 2.81069 10.2795 2.96885 10.1604 3.08794Z" fill="#F16124"/>
<path d="M4.68261 4.68222C5.75377 3.61106 5.75377 1.87437 4.68261 0.803835C4.14672 0.267945 3.4446 0 2.74248 0C2.04037 0 1.33887 0.267945 0.803603 0.803215C-0.268178 1.875 -0.267558 3.61168 0.803603 4.68284C1.33887 5.21811 2.04099 5.48605 2.74248 5.48605C3.4446 5.48605 4.14672 5.21811 4.68261 4.68222ZM1.41454 1.41415C1.76932 1.05938 2.24071 0.863999 2.74248 0.863999C3.24426 0.863999 3.71627 1.05938 4.07167 1.41477C4.42645 1.76955 4.62182 2.24156 4.62182 2.74334C4.62182 3.24511 4.42645 3.7165 4.07167 4.07128C3.71689 4.42606 3.24488 4.62205 2.74248 4.62205C2.24071 4.62205 1.76932 4.42668 1.41454 4.0719C0.681415 3.33877 0.681415 2.14666 1.41454 1.41415Z" fill="#F16124"/>
<path d="M16.6343 7.44766C16.3422 7.15552 15.9595 7.00977 15.5774 7.00977C15.1947 7.00977 14.8126 7.15552 14.5211 7.44766L7.44848 14.5197C6.86483 15.1033 6.86483 16.0492 7.44848 16.6328C7.73999 16.9244 8.12268 17.0701 8.50475 17.0701C8.88744 17.0701 9.26952 16.9244 9.56165 16.6322L16.6343 9.55959C17.2173 8.97718 17.2173 8.03069 16.6343 7.44766ZM16.0227 8.94927L8.95009 16.0219C8.831 16.141 8.67284 16.2067 8.50413 16.2067C8.33605 16.2067 8.17789 16.141 8.0588 16.0225C7.81318 15.7769 7.81318 15.3768 8.0588 15.1312L15.1314 8.0586C15.2505 7.93951 15.4081 7.87438 15.5762 7.87438C15.7442 7.87438 15.903 7.94013 16.0221 8.05922C16.2683 8.30421 16.2683 8.70365 16.0227 8.94927Z" fill="#F16124"/>
<path d="M17.4167 13.5376C16.8815 13.0023 16.18 12.7344 15.4779 12.7344C14.7757 12.7344 14.0736 13.0023 13.5377 13.5388C12.4666 14.6094 12.4666 16.3461 13.5377 17.4172C14.0736 17.9531 14.7757 18.221 15.4785 18.221C16.1806 18.221 16.8821 17.9537 17.4174 17.4185C18.4879 16.3467 18.4873 14.6094 17.4167 13.5376ZM16.8052 16.8069C16.4504 17.1617 15.979 17.3564 15.4779 17.3564C14.9755 17.3564 14.5035 17.1611 14.1487 16.8057C13.7939 16.4509 13.5985 15.9789 13.5985 15.4777C13.5985 14.9759 13.7939 14.5045 14.1487 14.1498C14.5041 13.7944 14.9761 13.599 15.4779 13.599C15.9796 13.599 16.451 13.7944 16.8052 14.1492C17.5377 14.8817 17.5383 16.0744 16.8052 16.8069Z" fill="#F16124"/>
<path d="M34.7313 15.0839C31.0377 15.9014 27.3503 13.1382 27.1692 9.36033C26.9968 5.76416 29.5956 2.77148 33.2582 2.77148C35.2101 2.77148 36.463 3.38863 37.5664 4.32891C37.7847 4.51499 37.812 4.84186 37.6166 5.05212L37.3375 5.3517C37.1732 5.52846 36.8953 5.55141 36.7123 5.39325C35.7745 4.58259 34.7089 4.0281 33.2408 4.0281C30.5713 4.0281 28.5735 6.18096 28.5735 8.9888C28.5735 11.796 30.5886 13.9836 33.2408 13.9836C34.7201 13.9836 35.7441 13.4738 36.77 12.5769C36.9815 12.3921 37.3022 12.4088 37.5025 12.6054L37.6917 12.7909C37.8772 12.9726 37.8803 13.2753 37.6905 13.4521C36.8469 14.2367 35.9259 14.8191 34.7313 15.0839Z" fill="#3C3C3C"/>
<path d="M68.0445 4.21838H61.5177C61.2888 4.21838 61.104 4.40383 61.104 4.63208V7.92062C61.104 8.14949 61.2894 8.33432 61.5177 8.33432H67.2692C67.4981 8.33432 67.6829 8.51977 67.6829 8.74802V9.15986C67.6829 9.38873 67.4974 9.57356 67.2692 9.57356H61.5177C61.2888 9.57356 61.104 9.75902 61.104 9.98727V13.3788C61.104 13.6076 61.2894 13.7925 61.5177 13.7925H68.1307C68.3596 13.7925 68.5444 13.9779 68.5444 14.2062V14.618C68.5444 14.8469 68.359 15.0317 68.1307 15.0317H60.1569C59.928 15.0317 59.7432 14.8463 59.7432 14.618V3.39222C59.7432 3.16335 59.9286 2.97852 60.1569 2.97852H68.0445C68.2734 2.97852 68.4582 3.16397 68.4582 3.39222V3.80468C68.4588 4.03293 68.2734 4.21838 68.0445 4.21838Z" fill="#3C3C3C"/>
<path d="M78.9113 15.0342H75.1465C74.9145 15.0342 74.7266 14.8463 74.7266 14.6143V3.46417C74.7266 3.1956 74.9443 2.97852 75.2122 2.97852H78.912C82.701 2.97852 85.3197 5.5792 85.3197 8.98991C85.3197 12.4006 82.701 15.0342 78.9113 15.0342ZM78.9113 4.23575H76.5867C76.3107 4.23575 76.0868 4.45966 76.0868 4.73567V13.3496C76.0868 13.5859 76.2784 13.7776 76.5147 13.7776H78.9113C81.9598 13.7776 83.9062 11.7115 83.9062 9.02403C83.9062 6.33651 81.9605 4.23575 78.9113 4.23575Z" fill="#3C3C3C"/>
<path d="M93.1186 2.97656V15.0329H91.7578V2.97656H93.1186Z" fill="#3C3C3C"/>
<path d="M109.152 5.99228C109.152 7.577 108.188 8.38642 107.241 8.7995C108.67 9.22995 109.825 10.0567 109.825 11.727C109.825 13.8117 108.085 15.0342 105.45 15.0342H100.524C100.286 15.0342 100.094 14.8419 100.094 14.6044V3.47161C100.094 3.19932 100.315 2.97852 100.587 2.97852H105.226C107.602 2.9779 109.152 4.14954 109.152 5.99228ZM107.775 6.18207C107.775 4.97632 106.827 4.20164 105.105 4.20164H101.75C101.451 4.20164 101.208 4.44477 101.208 4.74435V7.84743C101.208 8.12654 101.434 8.3523 101.713 8.3523H105.001C106.637 8.3523 107.775 7.61111 107.775 6.18207ZM108.446 11.6421C108.446 10.316 107.344 9.55806 105.242 9.55806H101.664C101.412 9.55806 101.208 9.76274 101.208 10.0146V13.4476C101.208 13.6492 101.371 13.8129 101.573 13.8129H105.484C107.31 13.8123 108.446 13.0029 108.446 11.6421Z" fill="#3C3C3C"/>
<path d="M116.352 2.97656H116.951C117.161 2.97656 117.332 3.14713 117.332 3.35739V13.3942C117.332 13.6044 117.502 13.775 117.712 13.775H123.736C123.946 13.775 124.117 13.9456 124.117 14.1558V14.6514C124.117 14.8617 123.946 15.0322 123.736 15.0322H116.352C116.141 15.0322 115.971 14.8617 115.971 14.6514V3.35801C115.971 3.14713 116.142 2.97656 116.352 2.97656Z" fill="#3C3C3C"/>
<path d="M134.555 15.0353H134.386C134.052 15.0353 133.782 14.7649 133.782 14.4312V10.4523C133.782 10.3301 133.748 10.216 133.679 10.1149C133.007 9.13802 129.271 3.70221 129.262 3.66437C129.034 2.6205 130.273 2.65337 130.422 2.97838C130.435 3.00567 132.907 6.66635 133.989 8.26906C134.229 8.62322 134.749 8.6226 134.989 8.26906L138.275 3.43612C138.469 3.14957 138.639 2.86426 139.14 2.97776C139.14 2.97776 139.895 3.3375 139.405 4.02225C138.782 4.89493 135.866 9.22547 135.265 10.0932C135.194 10.1943 135.159 10.3121 135.159 10.4349V14.4299C135.159 14.7649 134.889 15.0353 134.555 15.0353Z" fill="#3C3C3C"/>
<path d="M52.114 14.9436L49.2739 11.1378C48.8614 10.5846 48.2114 10.2589 47.5211 10.2589H45.1728V14.9436H43.812V2.88672H48.9966C51.6494 2.88672 53.3544 4.31638 53.3544 6.48661C53.3544 8.50178 51.9763 9.67342 50.082 10.0177L53.7849 14.9436H52.114ZM48.8937 4.14457H45.1734V9.03643H48.8769C50.6849 9.03643 51.9769 8.10607 51.9769 6.53933C51.9763 5.0402 50.84 4.14457 48.8937 4.14457Z" fill="#3C3C3C"/>
<path d="M141.119 4.5468V4.53873C141.119 3.75226 141.757 3.08984 142.559 3.08984C143.371 3.08984 144 3.74358 144 4.53005V4.53811C144 5.32458 143.362 5.987 142.559 5.987C141.748 5.98762 141.119 5.33326 141.119 4.5468ZM143.835 4.53873V4.53067C143.835 3.82731 143.288 3.24739 142.56 3.24739C141.84 3.24739 141.285 3.83538 141.285 4.53873V4.5468C141.285 5.25015 141.832 5.83008 142.56 5.83008C143.28 5.83008 143.835 5.24271 143.835 4.53873ZM142.022 3.78576H142.667C142.966 3.78576 143.206 3.9433 143.206 4.23295C143.206 4.47299 143.048 4.61378 142.85 4.67146L143.255 5.23464H142.966L142.602 4.70496H142.254V5.23464H142.022V3.78576ZM142.642 4.51392C142.85 4.51392 142.966 4.40662 142.966 4.24908C142.966 4.07541 142.842 3.9923 142.642 3.9923H142.254V4.51392H142.642Z" fill="#3C3C3C"/>
</g>
<defs>
<clipPath id="clip0_9758_217578">
<rect width="144" height="18.2209" fill="white"/>
</clipPath>
</defs>
</svg>
